<svg t="1627624765965" class="icon" viewBox="0 0 1024 1024" version="1.1" xmlns="http://www.w3.org/2000/svg" p-id="2552" width="20" height="20"><path d="M864.768 975.36H154.112c-55.296 0-100.352-45.568-100.352-100.864V190.464c0-55.808 45.056-100.864 100.352-100.864h384c20.992 0 38.4 17.408 38.4 38.4s-17.408 38.4-38.4 38.4h-384c-13.312 0-23.552 10.752-23.552 24.064v683.52c0 13.312 10.752 24.064 23.552 24.064h710.144c13.312 0 23.552-10.752 23.552-24.064V497.664c0-20.992 17.408-38.4 38.4-38.4s38.4 17.408 38.4 38.4v376.832c0.512 55.296-44.544 100.864-99.84 100.864z" p-id="2553" fill="#cdcdcd"></path><path d="M374.272 679.424c-9.728 0-19.968-3.584-27.136-11.264-14.848-14.848-14.848-39.424 0-54.272l552.96-548.864c14.848-14.848 39.424-14.848 54.272 0 14.848 14.848 14.848 39.424 0 54.272l-552.96 548.864c-7.168 7.68-17.408 11.264-27.136 11.264z" p-id="2554" fill="#cdcdcd"></path></svg>