<svg t="1627631208476" class="icon" viewBox="0 0 1024 1024" version="1.1" xmlns="http://www.w3.org/2000/svg" p-id="11111" width="128" height="128"><path d="M613.3 716.8C442.7 716.8 304 578.1 304 407.5S442.7 98.2 613.3 98.2 922.6 237 922.6 407.5 783.8 716.8 613.3 716.8z m0-528.7c-121 0-219.4 98.4-219.4 219.4s98.4 219.4 219.4 219.4 219.4-98.4 219.4-219.4-98.5-219.4-219.4-219.4z" fill="#FF4D46" p-id="11112"></path><path d="M140.4 925.4c-11.5 0-23-4.4-31.8-13.2-17.6-17.6-17.6-46 0-63.6l286-286c17.5-17.6 46-17.6 63.6 0s17.6 46 0 63.6l-286 286c-8.8 8.8-20.3 13.2-31.8 13.2z" fill="#FF4D46" p-id="11113"></path><path d="M478 924.9c-11.5 0-23-4.4-31.8-13.2L107.6 573.1c-17.6-17.6-17.6-46 0-63.6 17.5-17.6 46-17.6 63.6 0l338.6 338.6c17.6 17.6 17.6 46 0 63.6-8.8 8.8-20.3 13.2-31.8 13.2z" fill="#FF4D46" p-id="11114"></path></svg>