<svg t="1627631102198" class="icon" viewBox="0 0 1024 1024" version="1.1" xmlns="http://www.w3.org/2000/svg" p-id="10088" width="128" height="128"><path d="M403.9 926.4c-170.7 0-309.7-138.9-309.7-309.7S233.1 307 403.9 307c170.8 0 309.7 138.9 309.7 309.7S574.7 926.4 403.9 926.4z m0-529.3c-121.1 0-219.6 98.5-219.6 219.7s98.5 219.7 219.6 219.7S623.6 738 623.6 616.8 525 397.1 403.9 397.1z" fill="#5983F0" p-id="10089"></path><path d="M591.1 474.6c-11.5 0-23-4.4-31.8-13.2-17.6-17.6-17.6-46.1 0-63.7l286.3-286.3c17.6-17.6 46.1-17.6 63.7 0s17.6 46.1 0 63.7L622.9 461.4c-8.8 8.8-20.3 13.2-31.8 13.2z" fill="#5983F0" p-id="10090"></path><path d="M878.1 495.8c-24.9 0-45-20.2-45-45V189H571.4c-24.9 0-45-20.2-45-45s20.2-45 45-45h306.8c24.9 0 45 20.2 45 45v306.8c0 24.8-20.2 45-45.1 45z" fill="#5983F0" p-id="10091"></path></svg>