<svg t="1627631271289" class="icon" viewBox="0 0 1024 1024" version="1.1" xmlns="http://www.w3.org/2000/svg" p-id="12014" width="128" height="128"><path d="M773.906442 33.343399h-523.812884c-119.66415 0-216.750159 97.086009-216.750159 216.750159v523.812884c0 119.7364 97.086009 216.750159 216.750159 216.750159h523.812884c119.66415 0 216.750159-97.013759 216.750159-216.750159v-523.812884c0-119.66415-97.086009-216.750159-216.750159-216.750159z m-272.350187 721.232541c-33.021887-1.762901-50.448599-17.358075-52.142863-46.919184 3.457165-31.327623 20.81524-48.685698 52.142863-52.211501 31.327623 3.529415 48.685698 20.883878 52.215113 52.211501-1.835151 29.561109-19.193227 45.156283-52.215113 46.919184z m46.995047-208.636478v23.423468c-1.762901 29.633359-17.426713 45.297171-46.991435 46.991434-29.564722-1.694264-45.228533-17.358075-46.919184-46.991434v-65.194836c0-13.90091 14.746236-25.189981 44.310957-33.867212 3.457165-1.762901 6.137642-2.611839 7.831906-2.611839 38.241953-8.677231 56.445354-27.798208 54.754703-57.431568-3.457165-29.492472-21.732816-46.001609-54.754703-49.531023-20.883878 0-41.771368 12.206646-62.582996 36.547689-17.426713 19.120977-33.090524 28.647146-46.919184 28.647146-24.413293-1.694264-37.465265-17.358075-39.159529-46.919184 6.91433-62.582996 56.517604-99.130685 148.661709-109.574431 100.828561 6.98658 153.957638 53.905764 159.105454 140.829803-0.003613 69.569576-39.163141 114.798109-117.337698 135.681987z" p-id="12015" fill="#000000"></path></svg>