<svg t="1628127237790" class="icon" viewBox="0 0 1428 1024" version="1.1" xmlns="http://www.w3.org/2000/svg" p-id="4979" width="200" height="200"><path d="M985.66590664 1022.833122c-14.910104 0-31.765004-4.278552-47.323373-12.057736l-222.225373-111.112687-223.651558 110.983034c-14.132185 7.519878-30.33882 11.539124-46.934413 11.539124-21.522411 0.129653-42.396556-6.74196-59.640416-19.577615-31.246391-23.467207-47.323373-64.178273-39.933147-101.1294l45.767536-237.26513-175.29096-163.362877c-27.097493-27.486452-37.469739-67.289947-27.227146-104.370726l0.388959-1.166878c12.706002-38.247658 44.341352-64.956191 82.718663-70.142315l243.618131-44.341352L625.10070064 58.603191c17.503165-35.135984 53.287415-57.695619 91.01646-57.695619 39.414535 0 76.106356 23.467207 91.405419 58.343884l109.038237 221.317802L1160.17894864 323.095467c38.636617 5.575082 70.401621 33.320841 81.162826 70.920233 12.057736 36.951127 2.204102 77.402887-25.412003 104.759686l-0.648266 0.648266-174.772347 164.659407L1084.72085764 901.737149c7.130919 37.988351-8.038491 76.365662-39.414535 100.351481-16.984553 13.48392-37.988351 20.874145-59.640416 20.744492z m-269.419093-187.996961l248.026336 124.077994c7.260572 3.630286 15.688022 5.964042 21.392757 5.964042 8.816409 0 17.114206-2.722715 23.078248-7.779185l1.166878-0.907571c14.132185-10.631552 21.003798-27.356799 17.892124-43.82274l-49.916434-268.900481 197.461636-185.922512c12.057736-12.317042 16.206635-29.820208 10.890858-46.026842l-0.518612-1.68549c-4.408205-15.688022-17.632818-27.227146-33.7098-29.431249l-1.166878-0.129653-273.179033-47.712332-123.040769-249.711826c-5.964042-14.002532-22.170676-24.115472-38.506964-24.115472-16.076982 0-31.376045 10.11294-39.284882 25.541656l-122.133199 248.026336-274.475563 49.916434c-16.725247 2.074449-29.690555 13.224614-35.654596 30.468473-4.278552 15.817675 0.777918 34.747025 12.446695 46.675108L454.60690464 643.597873l-51.861231 269.030134c-3.111674 15.558369 4.278552 33.450494 17.892125 43.693087 6.871613 5.186123 15.688022 7.908838 25.023044 7.908838 7.130919 0 14.002532-1.68549 19.966574-4.797164l0.907571-0.518613 249.711826-124.077994z m0 0" p-id="4980" fill="#fec300"></path><path d="M1001.74288864 1021.925551c-11.539124 0-24.893391-3.889592-36.432515-9.594328l-248.933907-124.466954-250.74905 124.466954c-24.893391 13.354267-57.436313 11.539124-80.384908-5.704735-22.948595-17.243859-36.432515-47.841985-30.598126-76.624969l51.731577-267.992909L209.17363064 478.160547c-21.003798-21.003798-28.782983-53.546721-21.003799-80.384908 9.594328-28.65333 32.542922-49.786781 63.141049-53.54672l273.827298-49.786782 122.522157-248.933907c13.354267-26.838187 40.192454-44.082046 68.975437-44.082046 28.782983 0 57.436313 17.243859 68.975437 44.082046l122.522157 248.933907L1181.96066464 342.284123c28.65333 3.889592 53.546721 24.893391 61.325906 53.54672 9.594328 28.65333 1.944796 59.381109-19.188656 80.384908L1026.63627964 662.00861l49.786781 267.992909c5.704735 30.598126-7.649532 59.381109-30.598126 76.624969-11.539124 9.594328-26.838187 15.299063-44.082046 15.299063z m0 0" p-id="4981" fill="#fec300"></path></svg>