<svg t="1628127177557" class="icon" viewBox="0 0 1427 1024" version="1.1" xmlns="http://www.w3.org/2000/svg" p-id="4836" width="200" height="200"><path d="M928.08002009 960.97442364c-13.10458359 0-27.91846055-3.76044609-41.5928083-10.59761954l-195.31526923-97.65763506L494.60319041 950.14889844c-12.42086573 6.60926777-26.66497852 10.1418082-41.25094893 10.1418082-18.91618154 0.11395283-37.26259805-5.92555078-52.41833438-17.20688818-27.46264834-20.6254749-41.5928083-56.40668526-35.09749248-88.88326172l40.22537344-208.53380567L251.88351492 501.97214463c-23.81615596-24.15801445-32.93238779-59.14155498-23.93010879-91.73208428l0.34185849-1.02557548c11.16738457-33.61610567 38.97189141-57.09040224 72.7019499-61.64851905L515.11471247 308.59407441l96.06229454-195.20131641c15.38364112-30.88123594 46.83464209-50.70904013 79.99493555-50.709041 34.64168115 0 66.89035195 20.6254749 80.33679404 51.27880517l95.72043516 194.63155224 214.11749794 37.49050371c33.95796416 4.89997442 61.87642471 29.28589541 71.33451504 62.33223604 10.59761953 32.47657646 1.93719902 68.02988115-22.33476826 92.07394277l-0.56976416 0.56976504-153.60850811 144.72018194 38.85793858 208.87566503c6.26740928 33.38819912-7.06507998 67.11825762-34.64168203 88.19954385-14.81387695 11.85110156-33.27424628 18.23246367-52.30438067 18.11851084z m-236.90807753-165.23170401l217.99189599 109.05292441c6.38136211 3.19068106 13.78830059 5.24183378 18.80222871 5.24183379 7.74879698 0 15.04178261-2.39301123 20.28361641-6.83717431l1.02557549-0.79766983c12.42086573-9.3441375 18.46036933-24.04406162 15.72550049-38.51608007l-43.8718667-236.33831339 173.55026602-163.40845781c10.59761953-10.82552519 14.24411279-26.20916719 9.57204404-40.4532791l-0.45581221-1.4813877c-3.87439893-13.78830059-15.49759395-23.93010879-29.62775303-25.86730869l-1.02557637-0.11395283L833.04330193 354.28918731 725.01595301 134.81590273c-5.24183378-12.30691289-19.4859457-21.19523906-33.84401045-21.19523906-14.13015997 0-27.57660205 8.88832617-34.52772921 22.4487211L549.3005823 354.17523447 307.94834168 398.04710029c-14.69992412 1.82324619-26.09521435 11.6231959-31.33704727 26.77893135-3.76044609 13.90225342 0.683717 30.53937744 10.93947803 41.02304414l173.66421885 161.92707012-45.58116007 236.45226621c-2.73486972 13.67434776 3.76044609 29.39984824 15.72550049 38.40212724 6.03950362 4.55811592 13.78830059 6.95112715 21.99290977 6.95112716 6.26740928 0 12.30691289-1.48138769 17.5487458-4.21625743l0.7976707-0.45581132 219.47328457-109.16687813z m0 0" fill="" p-id="4837"></path></svg>